<svg id="Layer_1" data-name="Layer 1" xmlns="http://www.w3.org/2000/svg" viewBox="0 0 124 124"><defs><style>.cls-1{fill:#ffd44e;}.cls-2{fill:#fff8e1;}.cls-3{fill:#ffb100;}</style></defs><path class="cls-1" d="M60.53,31.35c-39,.67-39,58.74,0,59.4C99.57,90.09,99.56,32,60.53,31.35Zm0,35.87c-8,.12-8-12.46,0-12.34C68.53,54.76,68.53,67.34,60.53,67.22Z"/><path class="cls-2" d="M62.23,31.42c-.56,0-1.13-.06-1.7-.07-39,.67-39,58.74,0,59.4.57,0,1.14,0,1.69-.06C25.45,88.42,25.45,33.68,62.23,31.42Z"/><path class="cls-2" d="M62.22,67a6.61,6.61,0,0,0,1.7.19c8,.12,8-12.46,0-12.34a7,7,0,0,0-1.7.19C68,56.5,68,65.6,62.22,67Z"/><path class="cls-3" d="M60.54,91.6C39.82,91.25,30.4,75.52,30.4,61.05s9.42-30.2,30.11-30.55h0c20.69.35,30.12,16.08,30.12,30.55S81.23,91.25,60.54,91.6Zm0-59.4C41,32.54,32.09,47.39,32.09,61.05S41,89.57,60.54,89.91C80.06,89.57,89,74.71,89,61.05S80.06,32.54,60.53,32.2Zm.11,35.87h-.22a6.36,6.36,0,0,1-5.74-3.17,7.88,7.88,0,0,1,0-7.7A6.35,6.35,0,0,1,60.54,54a6.31,6.31,0,0,1,5.83,3.17,7.83,7.83,0,0,1,0,7.7A6.34,6.34,0,0,1,60.64,68.07Zm-.11-1.7h.11A4.65,4.65,0,0,0,64.91,64a6.17,6.17,0,0,0,0-6,4.68,4.68,0,0,0-4.37-2.33,4.64,4.64,0,0,0-4.39,2.33,6.17,6.17,0,0,0,0,6,4.59,4.59,0,0,0,4.36,2.33Z"/><rect class="cls-2" x="34.44" y="56.03" width="7.87" height="7.87"/><rect class="cls-2" x="46.13" y="56.03" width="4" height="7.87"/><rect class="cls-2" x="39.29" y="66.83" width="7.87" height="5.15"/><polygon class="cls-2" points="69.04 40.68 69.04 36.1 57.06 36.1 57.06 40.68 59.4 40.68 59.4 45.27 55.86 45.27 55.86 49.85 67.84 49.85 67.84 45.27 71.39 45.27 71.39 40.68 69.04 40.68"/><path class="cls-3" d="M67.84,50.7h-12a.85.85,0,0,1-.85-.85V45.26a.85.85,0,0,1,.85-.84h2.69V41.53H57.06a.85.85,0,0,1-.85-.85V36.1a.85.85,0,0,1,.85-.85H69a.85.85,0,0,1,.85.85v3.73h1.5a.85.85,0,0,1,.84.85v4.58a.85.85,0,0,1-.84.85h-2.7v3.74A.85.85,0,0,1,67.84,50.7ZM56.71,49H67V45.26a.85.85,0,0,1,.85-.84h2.7V41.53H69a.85.85,0,0,1-.85-.85V36.94H57.91v2.89H59.4a.85.85,0,0,1,.85.85v4.58a.85.85,0,0,1-.85.85H56.71Z"/><path class="cls-3" d="M42.31,64.75H34.44a.85.85,0,0,1-.85-.85V56a.85.85,0,0,1,.85-.85h7.87a.85.85,0,0,1,.85.85V63.9A.85.85,0,0,1,42.31,64.75Zm-7-1.7h6.17V56.88H35.29Z"/><rect class="cls-3" x="46.13" y="56.03" width="4" height="7.87"/><path class="cls-3" d="M47.16,72.83H39.29a.85.85,0,0,1-.85-.85V66.83a.85.85,0,0,1,.85-.85h7.87a.85.85,0,0,1,.84.85V72A.85.85,0,0,1,47.16,72.83Zm-7-1.7h6.17V67.68H40.14Z"/></svg>