<svg id="Layer_1" data-name="Layer 1" xmlns="http://www.w3.org/2000/svg" viewBox="0 0 124 124"><defs><style>.cls-1{fill:#ffd44e;}.cls-2{fill:#fff0c5;}.cls-3{fill:#fff8e1;}.cls-4{fill:#ffb100;}</style></defs><path class="cls-1" d="M43.69,72.94h-5.3V64a23.77,23.77,0,1,1,47.53,0v8.95H80.44a5.74,5.74,0,0,0-5.74,5.75v9.54A22.22,22.22,0,0,0,62.16,84.7a23.74,23.74,0,0,0-12.73,3.69v-9.7a5.74,5.74,0,0,0-5.74-5.75"/><circle class="cls-2" cx="50.5" cy="63.08" r="5.77"/><circle class="cls-2" cx="73.81" cy="63.08" r="5.77"/><path class="cls-3" d="M49.59,57.31a5.69,5.69,0,0,0-1,.1,5.77,5.77,0,0,1,0,11.35,5.69,5.69,0,0,0,1,.1,5.78,5.78,0,1,0,0-11.55Z"/><path class="cls-3" d="M72.91,57.31a5.71,5.71,0,0,0-1,.1,5.77,5.77,0,0,1,0,11.35,5.71,5.71,0,0,0,1,.1,5.78,5.78,0,0,0,0-11.55Z"/><path class="cls-3" d="M49.32,88.39a24.72,24.72,0,0,1,3.18-1.68v-8a5.75,5.75,0,0,0-5.75-5.75H43.58a5.74,5.74,0,0,1,5.74,5.75v9.7Z"/><path class="cls-3" d="M63.63,40.28c-.52,0-1.05-.06-1.58-.06A23.77,23.77,0,0,0,38.28,64v8.95h3.18V64A23.76,23.76,0,0,1,63.63,40.28Z"/><path class="cls-4" d="M49.37,89.59a1,1,0,0,1-.47-.12,1,1,0,0,1-.49-.84v-9.7a4.8,4.8,0,0,0-4.79-4.79h-5.3a1,1,0,0,1-1-1v-9a24.73,24.73,0,1,1,49.46,0v9a1,1,0,0,1-1,1H80.38a4.8,4.8,0,0,0-4.79,4.79v9.54a.94.94,0,0,1-.5.84,1,1,0,0,1-1,0,21.27,21.27,0,0,0-12-3.38,22.8,22.8,0,0,0-12.21,3.54A1,1,0,0,1,49.37,89.59ZM39.29,72.22h4.33a6.72,6.72,0,0,1,6.71,6.71v8a24.65,24.65,0,0,1,11.76-3,23.49,23.49,0,0,1,11.58,2.81V78.93a6.72,6.72,0,0,1,6.71-6.71h4.51v-8a22.8,22.8,0,1,0-45.6,0Z"/><path class="cls-4" d="M55.09,52.89H55a1,1,0,0,1-.89-1L54.5,46a1,1,0,0,1,1-.9H59A1,1,0,0,1,59,47H56.36L56,52A1,1,0,0,1,55.09,52.89Z"/><path class="cls-4" d="M55.46,47a1,1,0,0,1-.88-.57l-1.81-4a1,1,0,0,1,1.76-.79l1.81,4a1,1,0,0,1-.49,1.27A1,1,0,0,1,55.46,47Z"/><path class="cls-4" d="M55.63,86.68a1,1,0,0,1-1-1V81a1,1,0,1,1,1.92,0v4.68A1,1,0,0,1,55.63,86.68Z"/><path class="cls-4" d="M68.52,86.68a1,1,0,0,1-1-1V81a1,1,0,0,1,1.92,0v4.68A1,1,0,0,1,68.52,86.68Z"/><path class="cls-4" d="M62.07,85.9a1,1,0,0,1-1-1V77.66a1,1,0,0,1,1.92,0v7.28A1,1,0,0,1,62.07,85.9Z"/><path class="cls-4" d="M59,74.37a1,1,0,0,1-.61-.22,1,1,0,0,1-.13-1.36L61.35,69a1,1,0,0,1,1.47,0l3.24,3.79a1,1,0,0,1-.1,1.35A1,1,0,0,1,64.6,74l-2.49-2.92L59.73,74A1,1,0,0,1,59,74.37Z"/><path class="cls-4" d="M50.66,69.82a6.74,6.74,0,1,1,6.74-6.74A6.74,6.74,0,0,1,50.66,69.82Zm0-11.55a4.82,4.82,0,1,0,4.81,4.81A4.82,4.82,0,0,0,50.66,58.27Z"/><path class="cls-4" d="M74,69.82a6.74,6.74,0,1,1,6.74-6.74A6.74,6.74,0,0,1,74,69.82Zm0-11.55a4.82,4.82,0,1,0,4.81,4.81A4.82,4.82,0,0,0,74,58.27Z"/></svg>