<svg id="Layer_1" data-name="Layer 1" xmlns="http://www.w3.org/2000/svg" viewBox="0 0 124 124"><defs><style>.cls-1{fill:#ffd44e;}.cls-2{fill:#ffb100;}.cls-3{fill:#ffdf81;}.cls-4{fill:#fff8e1;}</style></defs><polygon class="cls-1" points="88.07 77.32 88.07 53.58 67.52 41.71 55.36 41.71 55.36 89.19 67.52 89.19 88.07 77.32"/><path class="cls-2" d="M67.64,90.4H55.49a1.22,1.22,0,0,1-1.22-1.21V41.71a1.22,1.22,0,0,1,1.22-1.21H67.64a1.29,1.29,0,0,1,.61.16L88.81,52.53a1.23,1.23,0,0,1,.6,1V77.32a1.21,1.21,0,0,1-.6,1.05L68.25,90.24A1.18,1.18,0,0,1,67.64,90.4ZM56.7,88H67.32L87,76.62V54.28L67.32,42.93H56.7ZM88.2,77.32h0Z"/><polygon class="cls-3" points="76.04 77.32 76.04 53.58 55.49 41.71 34.93 53.58 34.93 77.32 55.49 89.19 76.04 77.32"/><polygon class="cls-1" points="72.1 74.97 51.54 86.84 35.88 77.79 35.88 77.81 56.44 89.69 76.99 77.81 76.99 54.08 72.1 51.25 72.1 74.97"/><polygon class="cls-4" points="38.87 55.96 59.43 44.09 75.09 53.13 75.09 53.11 54.54 41.24 33.98 53.11 33.98 76.85 38.87 79.67 38.87 55.96"/><path class="cls-2" d="M55.49,90.4a1.21,1.21,0,0,1-.61-.16L34.32,78.37a1.22,1.22,0,0,1-.61-1.05V53.58a1.24,1.24,0,0,1,.61-1L54.88,40.66a1.24,1.24,0,0,1,1.21,0L76.65,52.53a1.21,1.21,0,0,1,.61,1V77.32a1.2,1.2,0,0,1-.61,1.05L56.09,90.24A1.15,1.15,0,0,1,55.49,90.4ZM36.14,76.62,55.49,87.79,74.83,76.62V54.28L55.49,43.11,36.14,54.28Zm39.9.7h0Z"/><polygon class="cls-4" points="41.49 72.85 41.49 57.1 55.13 49.23 59.23 51.57 45.59 59.44 45.59 75.19 41.49 72.85"/><polygon class="cls-1" points="69.6 57.84 69.6 73.58 55.96 81.45 51.87 79.11 65.5 71.24 65.5 55.5 69.6 57.84"/><path class="cls-2" d="M55.49,82.41a1.32,1.32,0,0,1-.61-.16L41.24,74.37a1.2,1.2,0,0,1-.6-1.05V57.58a1.2,1.2,0,0,1,.6-1l13.64-7.87a1.19,1.19,0,0,1,1.21,0l13.64,7.87a1.21,1.21,0,0,1,.61,1V73.32a1.21,1.21,0,0,1-.61,1.05L56.09,82.25A1.25,1.25,0,0,1,55.49,82.41ZM43.06,72.62,55.49,79.8l12.42-7.18V58.28L55.49,51.11,43.06,58.28Zm26.06.7h0Z"/><path class="cls-2" d="M55.39,68.34a.15.15,0,0,0-.13,0l-2.21,1a.18.18,0,0,1-.21-.06L51.3,66.86a.24.24,0,0,1,0-.09V60.38a.17.17,0,0,1,.17-.17H59a.17.17,0,0,1,.16.21L58,65.78a.17.17,0,0,1-.2.13l-3.52-.74a.16.16,0,0,1-.12-.2l.35-1.68a.18.18,0,0,1,.2-.13l.95.2a.16.16,0,0,1,.13.19l-.08.37a.18.18,0,0,0,.13.2l.93.2a.16.16,0,0,0,.2-.12l.36-1.66a.17.17,0,0,0-.13-.2l-3.48-.72a.17.17,0,0,0-.2.13L52.66,66a.17.17,0,0,0,.13.2l6.06,1.3a.17.17,0,0,0,.2-.13l1.64-8.24a.17.17,0,0,0-.16-.21H50.16a.17.17,0,0,0-.17.17V71.83a.17.17,0,0,0,.17.17H60.57a.17.17,0,0,0,.16-.17v-3a.16.16,0,0,0-.23-.15l-2.17.84a.17.17,0,0,1-.12,0Z"/></svg>