<svg id="Layer_1" data-name="Layer 1" xmlns="http://www.w3.org/2000/svg" viewBox="0 0 124 124"><defs><style>.cls-1{fill:#fff8e1;}.cls-2{fill:#ffb100;}.cls-3{fill:#ffdf81;}.cls-4{fill:#ffd44e;}</style></defs><path class="cls-1" d="M46.44,40.26a9.4,9.4,0,0,0-15.93,3.87Z"/><path class="cls-2" d="M30.51,44.9a.79.79,0,0,1-.56-.23.76.76,0,0,1-.18-.75A10.17,10.17,0,0,1,47,39.73a.76.76,0,0,1,.17.75.77.77,0,0,1-.55.53L30.69,44.88A.55.55,0,0,1,30.51,44.9ZM39.56,38a8.66,8.66,0,0,0-7.83,5l13.12-3.19A8.7,8.7,0,0,0,39.56,38Z"/><path class="cls-1" d="M94,44.13a9.4,9.4,0,0,0-15.93-3.87Z"/><path class="cls-2" d="M94,44.9a.55.55,0,0,1-.18,0L77.89,41a.78.78,0,0,1-.39-1.28,10.18,10.18,0,0,1,17.24,4.19.77.77,0,0,1-.75,1Zm-14.34-5L92.77,43a8.66,8.66,0,0,0-7.83-5A8.55,8.55,0,0,0,79.65,39.85Z"/><path class="cls-3" d="M100.54,79.17h0v-.06a6.75,6.75,0,0,0-.16-1.11l-4-27.75-.06-.4-.11-.71h0A12.29,12.29,0,0,0,84.11,39.2a12,12,0,0,0-2.42.24h0a11.76,11.76,0,0,0-1.44.39,81.08,81.08,0,0,1-18,2,81.14,81.14,0,0,1-18-2,11.29,11.29,0,0,0-1.44-.39h0a12.29,12.29,0,0,0-14.48,9.69h0l-.1.71c0,.14-.05.27-.06.4L24.15,78A8,8,0,0,0,24,79.11v.06h0c0,.14,0,.28,0,.43a7.12,7.12,0,0,0,11.52,5.61h0l.07,0,.15-.13L50.84,72.47s.93-1.14,3.74-1.14H70c2.8,0,3.74,1.14,3.74,1.14L88.82,85l.16.13.06,0h0a7.13,7.13,0,0,0,11.53-5.61C100.57,79.45,100.55,79.31,100.54,79.17Z"/><path class="cls-4" d="M100.54,79.17h0v-.06a6.75,6.75,0,0,0-.16-1.11l-4-27.75-.06-.4-.11-.71h0A12.3,12.3,0,0,0,90,40.69a12.13,12.13,0,0,1,2.26,5.05h0l.1.72c0,.13,0,.26.06.4l4,27.75a7.88,7.88,0,0,1,.16,1.1v.06h0c0,.14,0,.28,0,.42A7.12,7.12,0,0,1,85.1,81.81h0L85,81.76l-.15-.13L69.75,69.07s-.93-1.14-3.74-1.14H50.64c-2.81,0-3.74,1.14-3.74,1.14L31.77,81.63l-.16.13-.06.06h0a7.14,7.14,0,0,1-6.76,1.12,7.12,7.12,0,0,0,10.7,2.28h0l.07,0,.15-.13L50.84,72.47s.93-1.14,3.74-1.14H70c2.8,0,3.74,1.14,3.74,1.14L88.82,85l.16.13.06,0h0a7.13,7.13,0,0,0,11.53-5.61C100.57,79.45,100.55,79.31,100.54,79.17Z"/><path class="cls-1" d="M25.66,81.87c0-.14,0-.28,0-.43h0v-.06a6.63,6.63,0,0,1,.16-1.1l4-27.75.06-.4.11-.72h0a12.3,12.3,0,0,1,12.06-9.94,12,12,0,0,1,2.42.24h0A13.88,13.88,0,0,1,46,42.1a80.73,80.73,0,0,0,18,2,80.79,80.79,0,0,0,18-2,13.23,13.23,0,0,1,1.44-.39h0a12.26,12.26,0,0,1,10.53,2.83A12.25,12.25,0,0,0,83.79,39.2a12,12,0,0,0-2.42.24h0a11.76,11.76,0,0,0-1.44.39,81.08,81.08,0,0,1-18,2,81.14,81.14,0,0,1-18-2,11.76,11.76,0,0,0-1.44-.39h0a12,12,0,0,0-2.42-.24,12.27,12.27,0,0,0-12,9.93h0l-.1.71c0,.14-.05.27-.06.4L23.83,78a8.1,8.1,0,0,0-.16,1.1v.07h0c0,.14,0,.28,0,.43a7.09,7.09,0,0,0,2.92,5.74A7,7,0,0,1,25.66,81.87Z"/><path class="cls-2" d="M93.44,87.5a7.83,7.83,0,0,1-4.81-1.63l-.08-.07L73.2,73.06a.94.94,0,0,1-.1-.1h0s-.82-.86-3.14-.86H54.58c-2.33,0-3.15.86-3.16.87a.38.38,0,0,1-.09.09L36,85.81l-.08,0a7.81,7.81,0,0,1-4.8,1.64,7.9,7.9,0,0,1-7.9-7.9c0-.13,0-.26,0-.39h0a.76.76,0,0,1,0-.15,8.28,8.28,0,0,1,.18-1.23l4-27.69c0-.06,0-.15,0-.24L27.6,49a.53.53,0,0,1,0-.12A13.05,13.05,0,0,1,40.42,38.43a13.36,13.36,0,0,1,2.52.24l.12,0a13.06,13.06,0,0,1,1.48.41,81.27,81.27,0,0,0,17.72,2,81,81,0,0,0,17.78-2,13.54,13.54,0,0,1,1.48-.4h0A13.08,13.08,0,0,1,96.91,48.91s0,.08,0,.12l.12.85c0,.1,0,.2,0,.3l4,27.71a7.32,7.32,0,0,1,.17,1.16v.08h0v.12c0,.12,0,.24,0,.36A7.91,7.91,0,0,1,93.44,87.5Zm-4-2.94,0,0A6.29,6.29,0,0,0,93.44,86,6.37,6.37,0,0,0,99.8,79.6a2.28,2.28,0,0,0,0-.26v-.18a6.09,6.09,0,0,0-.14-1L95.57,50.36c0-.1,0-.16,0-.23l-.12-.8a.43.43,0,0,1,0,0A11.52,11.52,0,0,0,84.11,40a11.64,11.64,0,0,0-2.27.22h0a10.28,10.28,0,0,0-1.33.36,82.58,82.58,0,0,1-18.22,2.08,82.63,82.63,0,0,1-18.15-2.06,10.53,10.53,0,0,0-1.38-.38h0a11.55,11.55,0,0,0-13.57,9.09.09.09,0,0,1,0,0l-.12.81a1.37,1.37,0,0,0,0,.19l-4,27.79a6.75,6.75,0,0,0-.16,1h0v.15c0,.09,0,.18,0,.28A6.35,6.35,0,0,0,35,84.6l0,0,.14-.12L50.3,71.91c.3-.31,1.49-1.36,4.28-1.36H70c2.79,0,4,1,4.27,1.36Z"/><path class="cls-2" d="M62.27,55.35a4.26,4.26,0,1,1,4.26-4.26A4.26,4.26,0,0,1,62.27,55.35Zm0-7A2.72,2.72,0,1,0,65,51.09,2.71,2.71,0,0,0,62.27,48.38Z"/><path class="cls-1" d="M51,63.28H52.8a.58.58,0,0,0,.57-.57V60.87a.58.58,0,0,1,.57-.57h1.58a.56.56,0,0,0,.57-.57V59.4a.57.57,0,0,0-.57-.57H52.64a.57.57,0,0,0-.57.57v1.84a.58.58,0,0,1-.57.57H49.66a.57.57,0,0,0-.57.57v2.88a.57.57,0,0,0,.57.57h.16a.56.56,0,0,0,.57-.57V63.85A.57.57,0,0,1,51,63.28Z"/><path class="cls-2" d="M55.73,69.22h-4a.78.78,0,0,1-.77-.78v-2.2h-2.2a.76.76,0,0,1-.77-.77v-4a.77.77,0,0,1,.77-.77h2.2v-2.2a.77.77,0,0,1,.77-.77h4a.77.77,0,0,1,.77.77v2.2h2.2a.77.77,0,0,1,.77.77v4a.76.76,0,0,1-.77.77H56.5v2.2A.78.78,0,0,1,55.73,69.22Zm-3.26-1.55H55v-2.2a.76.76,0,0,1,.77-.77h2.2V62.22h-2.2a.77.77,0,0,1-.77-.78v-2.2H52.47v2.2a.77.77,0,0,1-.77.78H49.5V64.7h2.2a.76.76,0,0,1,.77.77Z"/><path class="cls-1" d="M67,64.68a5.07,5.07,0,0,1,8-4.14A5.07,5.07,0,1,0,67.9,67.6,5.07,5.07,0,0,1,67,64.68Z"/><path class="cls-2" d="M70.82,69.29a5.84,5.84,0,1,1,5.84-5.83A5.84,5.84,0,0,1,70.82,69.29Zm0-10.13a4.3,4.3,0,1,0,4.29,4.3A4.3,4.3,0,0,0,70.82,59.16Z"/><path class="cls-1" d="M34,53.45a8.07,8.07,0,0,1,12.71-6.59A8.06,8.06,0,1,0,35.5,58.09,8,8,0,0,1,34,53.45Z"/><path class="cls-1" d="M78.18,53.45a8.06,8.06,0,0,1,12.7-6.59A8.06,8.06,0,1,0,79.65,58.09,8.05,8.05,0,0,1,78.18,53.45Z"/><path class="cls-1" d="M36.2,52.55a5.21,5.21,0,0,1,5.21-5.21,5.13,5.13,0,0,1,3,1,5.2,5.2,0,1,0-7.24,7.24A5.15,5.15,0,0,1,36.2,52.55Z"/><path class="cls-2" d="M40.14,60.34A8.84,8.84,0,1,1,49,51.5,8.84,8.84,0,0,1,40.14,60.34Zm0-16.13a7.3,7.3,0,1,0,7.29,7.29A7.31,7.31,0,0,0,40.14,44.21Z"/><path class="cls-2" d="M40.14,57.53a6,6,0,1,1,6-6A6,6,0,0,1,40.14,57.53Zm0-10.52a4.49,4.49,0,1,0,4.49,4.49A4.5,4.5,0,0,0,40.14,47Z"/><circle class="cls-1" cx="84.45" cy="47.83" r="1.48"/><circle class="cls-1" cx="84.45" cy="55.26" r="1.48"/><circle class="cls-1" cx="80.69" cy="51.5" r="1.48"/><circle class="cls-1" cx="88.2" cy="51.5" r="1.48"/><path class="cls-2" d="M84.45,50.08a2.25,2.25,0,1,1,2.24-2.25A2.25,2.25,0,0,1,84.45,50.08Zm0-3a.71.71,0,0,0-.71.71.7.7,0,0,0,.71.7.7.7,0,0,0,.7-.7A.7.7,0,0,0,84.45,47.12Z"/><path class="cls-2" d="M84.45,57.51a2.25,2.25,0,1,1,2.24-2.25A2.25,2.25,0,0,1,84.45,57.51Zm0-3a.71.71,0,0,0-.71.71.7.7,0,0,0,.71.7.7.7,0,0,0,.7-.7A.7.7,0,0,0,84.45,54.55Z"/><path class="cls-2" d="M80.69,53.75a2.25,2.25,0,1,1,2.25-2.25A2.25,2.25,0,0,1,80.69,53.75Zm0-3a.7.7,0,0,0-.7.7.7.7,0,0,0,.7.71.71.71,0,0,0,.71-.71A.7.7,0,0,0,80.69,50.8Z"/><path class="cls-2" d="M88.2,53.75a2.25,2.25,0,1,1,2.25-2.25A2.25,2.25,0,0,1,88.2,53.75Zm0-3a.7.7,0,0,0-.7.7.7.7,0,0,0,.7.71.71.71,0,0,0,.71-.71A.7.7,0,0,0,88.2,50.8Z"/><path class="cls-2" d="M84.29,60.38a8.84,8.84,0,1,1,8.84-8.84A8.84,8.84,0,0,1,84.29,60.38Zm0-16.13a7.3,7.3,0,1,0,7.3,7.29A7.3,7.3,0,0,0,84.29,44.25Z"/></svg>