<svg id="Layer_1" data-name="Layer 1" xmlns="http://www.w3.org/2000/svg" viewBox="0 0 124 124"><defs><style>.cls-1{fill:#ffd44e;}.cls-2{fill:#fff8e1;}.cls-3{fill:#ffb100;}.cls-4{fill:#ffdf81;}</style></defs><path class="cls-1" d="M52.24,107.78l1.2-39.56c.08-2.66.08-5.33,0-8l-1.2-39.56a2,2,0,0,1,2-2H70.4a2,2,0,0,1,2,2l-1.2,39.56c-.08,2.66-.08,5.33,0,8l1.2,39.56a2,2,0,0,1-2,2H54.22A2,2,0,0,1,52.24,107.78Z"/><path class="cls-2" d="M55.69,70.48c.08-2.67.08-5.33,0-8l-1.2-39.55a2,2,0,0,1,2-2h15.9v-.28a2,2,0,0,0-2-2H54.22a2,2,0,0,0-2,2l1.2,39.56c.08,2.66.08,5.33,0,8l-1.2,39.56a2,2,0,0,0,2,2h.28Z"/><path class="cls-3" d="M70.4,110.32H54.22a2.55,2.55,0,0,1-2.55-2.54v0l1.2-39.55c.08-2.65.08-5.32,0-8l-1.2-39.55a2.56,2.56,0,0,1,2.55-2.56H70.4a2.54,2.54,0,0,1,2.54,2.54l-1.2,39.57c-.08,2.65-.08,5.32,0,8l1.2,39.55A2.55,2.55,0,0,1,70.4,110.32Zm-17.6-2.54a1.42,1.42,0,0,0,1.42,1.41H70.4a1.41,1.41,0,0,0,1.41-1.41L70.62,68.24c-.08-2.66-.08-5.37,0-8l1.19-39.55a1.41,1.41,0,0,0-1.41-1.4H54.22a1.42,1.42,0,0,0-1.42,1.41L54,60.21c.08,2.66.08,5.37,0,8Z"/><rect class="cls-2" x="55.63" y="99.69" width="13.35" height="3.36" rx="1.24"/><rect class="cls-3" x="47" y="45.01" width="37.75" height="4.18" rx="1.74" transform="translate(112.97 -18.78) rotate(90)"/><rect class="cls-2" x="61.51" y="28.22" width="8.72" height="4.18" rx="1.74" transform="translate(96.18 -35.57) rotate(90)"/><path class="cls-3" d="M59.55,37.62h-.62a1.46,1.46,0,0,1-1.46-1.46v-9.5a1.45,1.45,0,0,1,1.46-1.45h.62A1.45,1.45,0,0,1,61,26.66v9.5A1.46,1.46,0,0,1,59.55,37.62Zm-.62-11.29a.33.33,0,0,0-.33.33v9.5a.33.33,0,0,0,.33.33h.62a.33.33,0,0,0,.32-.33v-9.5a.33.33,0,0,0-.32-.33Z"/><path class="cls-3" d="M59.55,52.2h-.62a1.45,1.45,0,0,1-1.46-1.45V41.24a1.45,1.45,0,0,1,1.46-1.45h.62A1.45,1.45,0,0,1,61,41.24v9.51A1.45,1.45,0,0,1,59.55,52.2Zm-.62-11.28a.32.32,0,0,0-.33.32v9.51a.32.32,0,0,0,.33.32h.62a.32.32,0,0,0,.32-.32V41.24a.32.32,0,0,0-.32-.32Z"/><path class="cls-3" d="M59.55,66.78h-.62a1.45,1.45,0,0,1-1.46-1.45V55.82a1.45,1.45,0,0,1,1.46-1.45h.62A1.45,1.45,0,0,1,61,55.82v9.51A1.45,1.45,0,0,1,59.55,66.78ZM58.93,55.5a.32.32,0,0,0-.33.32v9.51a.32.32,0,0,0,.33.32h.62a.32.32,0,0,0,.32-.32V55.82a.32.32,0,0,0-.32-.32Z"/><path class="cls-2" d="M58,87.89a5.89,5.89,0,0,1,9.29-4.82,5.89,5.89,0,1,0-8.21,8.21A5.85,5.85,0,0,1,58,87.89Z"/><path class="cls-3" d="M62.44,93a6.46,6.46,0,1,1,6.46-6.46A6.47,6.47,0,0,1,62.44,93Zm0-11.79a5.33,5.33,0,1,0,5.34,5.33A5.33,5.33,0,0,0,62.44,81.16Z"/><path class="cls-3" d="M62.44,90.1a3.61,3.61,0,1,1,3.61-3.61A3.61,3.61,0,0,1,62.44,90.1Zm0-6.09a2.48,2.48,0,1,0,2.49,2.48A2.49,2.49,0,0,0,62.44,84Z"/><rect class="cls-4" x="55.63" y="16.06" width="13.35" height="5.26" rx="1.8"/><path class="cls-3" d="M67.18,21.89H57.43a2.37,2.37,0,0,1-2.36-2.37V17.87a2.37,2.37,0,0,1,2.36-2.37h9.75a2.37,2.37,0,0,1,2.37,2.37v1.65A2.37,2.37,0,0,1,67.18,21.89Zm-9.75-5.26a1.23,1.23,0,0,0-1.23,1.24v1.65a1.23,1.23,0,0,0,1.23,1.24h9.75a1.23,1.23,0,0,0,1.24-1.24V17.87a1.23,1.23,0,0,0-1.24-1.24Z"/></svg>