<svg id="Layer_1" data-name="Layer 1" xmlns="http://www.w3.org/2000/svg" viewBox="0 0 124 124"><defs><style>.cls-1{fill:#ffdf81;}.cls-2{fill:#ffd44e;}.cls-3{fill:#fff8e1;}.cls-4{fill:#ffb100;}</style></defs><path class="cls-1" d="M58.87,35.5V75.29H57.39a7.68,7.68,0,0,0,0,15.33h9.17a7.68,7.68,0,0,0,0-15.33h-1.5V44h7.19a1.3,1.3,0,0,0,1.3-1.3V37.19a1.3,1.3,0,0,0-1.3-1.29H65.06v-.4a3.1,3.1,0,1,0-6.19,0Zm7.39,45.21a2.3,2.3,0,0,1,0,4.6H57.7a2.3,2.3,0,0,1,0-4.6Z"/><path class="cls-2" d="M71.11,35.9c0,4.59-2.22,4.72-3.5,4.72H65A1.38,1.38,0,0,0,63.66,42V74.51c0,.9.4,1.53.94,1.53V44h7.19a1.3,1.3,0,0,0,1.3-1.3V37.19A1.3,1.3,0,0,0,72.15,36Z"/><path class="cls-3" d="M70.67,83a2.3,2.3,0,0,0-2.3-2.3H66a2.3,2.3,0,0,1,0,4.6h2.41A2.3,2.3,0,0,0,70.67,83Z"/><path class="cls-3" d="M52.22,83a7.91,7.91,0,0,1,7.28-7.66H61V35.5a3.1,3.1,0,0,1,1.89-2.85,3.08,3.08,0,0,0-1.21-.25,3.12,3.12,0,0,0-3.1,3.1V75.29H57.08a7.68,7.68,0,0,0,0,15.33H59.5A7.91,7.91,0,0,1,52.22,83Z"/><path class="cls-4" d="M66.26,86.21H57.69a3.21,3.21,0,0,1,0-6.41h8.57a3.21,3.21,0,0,1,0,6.41Zm-8.57-4.6a1.4,1.4,0,0,0,0,2.79h8.57a1.4,1.4,0,0,0,0-2.79Z"/><path class="cls-4" d="M66.55,91.52H57.29a8.58,8.58,0,0,1,0-17.13H58V35.5a4,4,0,0,1,8-.51h6.32a2.2,2.2,0,0,1,2.2,2.2v5.48a2.2,2.2,0,0,1-2.2,2.21H66v29.5h.7a8.58,8.58,0,0,1,0,17.13Zm-9.12-1.8H66.5a6.77,6.77,0,0,0,0-13.53H65.05a.9.9,0,0,1-.9-.9V44a.9.9,0,0,1,.9-.9h7.19a.4.4,0,0,0,.4-.4V37.19a.4.4,0,0,0-.4-.39H65.05a.9.9,0,0,1-.9-.9v-.4a2.19,2.19,0,0,0-4.38,0V75.29a.9.9,0,0,1-.91.9H57.43a6.77,6.77,0,0,0,0,13.53Zm1.43-14.43h0Z"/></svg>